<?xml version="1.0" encoding="utf-8"?>
<!-- Generator: Adobe Illustrator 23.0.3, SVG Export Plug-In . SVG Version: 6.00 Build 0)  -->
<svg version="1.1" id="Capa_1" xmlns="http://www.w3.org/2000/svg" xmlns:xlink="http://www.w3.org/1999/xlink" x="0px" y="0px"
	 viewBox="0 0 595.3 841.9" style="enable-background:new 0 0 595.3 841.9;" xml:space="preserve">
<style type="text/css">
	.st0{fill:#030403;}
	.st1{fill:#FFFFFF;}
	.st2{fill:#3DE214;}
	.st3{fill:#7BCA41;}
	.st4{fill:#F1F1F1;}
	.st5{fill:#F2F2F2;}
	.st6{fill:#CBD4D9;}
	.st7{fill:#CBD4D8;}
	.st8{fill:#7AC443;}
	.st9{fill:#067918;}
	.st10{fill:#047B16;}
	.st11{fill:#ECECEC;}
	.st12{fill:#4BC72C;}
</style>
<g>
	<path class="st0" d="M-228.3,563.7c-5.5,0.4-11,0.7-16.5-0.3c-15.1-2-28.5-8-39.2-18.9c-3.4-3.5-7.2-4.5-11.6-5.3
		c-18.7-3.2-37.2-7.4-53.4-18c-7.2-4.7-13.5-10.5-15.7-19.1c-3.2-12.6-0.6-22.7,11.7-32.4c13.6-10.7,29.9-15.3,46.4-18.8
		c4.9-1,9.9-2.2,15-2.5c2.7-0.1,4.7-1.9,6.2-4.3c-3.3-1.9-7.1-2.8-10.1-5.3c-5.7-4.8-7-11.3-8-18.1c-1.3-9.2-2.7-18.3-4.1-27.5
		c-1.7-11.2-3.3-22.5-4.9-33.7c-0.5-3.5-1-7.1-1.6-10.6c-1.8-10.6,3.9-20.7,14.5-23c6.6-1.5,8.4-4.2,9.4-11
		c2.6-18.3,12.4-32.5,28.6-42c24.6-14.7,57-9.6,75.9,12.6c7.6,9,12.1,19.4,13.8,31.3c1.9,14-1.1,26.7-8,38.7c-1,1.7-0.9,2.7,0.2,4.5
		c5.3,8.3,7.6,17.6,9.1,27.2c1.1,6.9,1.5,13.8,0.8,20.8c-0.4,3.4,2.5,5.7,3.1,8.9c1.1,5.7,0.5,11.4,0.6,17.1c0.1,4.6,0.2,9.3,0,13.9
		c-0.2,2.6,1,3.4,3.2,3.8c12.6,2.5,24.8,6.6,35.9,13c8.4,4.8,15.8,10.8,19.2,20.4c3.6,10,1.5,19.1-5.2,27.1
		c-9.2,10.9-21.7,16.4-34.9,20.5c-11.4,3.6-23,6.4-34.9,7.5c-1.4,0.1-2,1-2.7,1.8C-197,554.5-211.5,561.4-228.3,563.7z
		 M-158.6,510.8c-0.7,0-1.4,0-1.9,0.7l-0.2-0.1c-2.2,0.2-4.5,0.5-6.5,1.6l-0.2-0.1c0,0-0.2,0.1-0.2,0.1c-3.8,0.6-7.5,1.2-11.3,1.8
		c-0.5,0.1-1,0.2-1.6,0.3c-7.7,0.9-15.5,1.8-23.2,2.6c-0.5,0-1,0.1-1.5,0.1c-11.9,0.6-23.8,1.4-35.8,1.1c-8.5-0.2-16.9-0.2-25.4-0.9
		c-10.4-0.9-20.7-2.4-31.1-3.6l0.1,0.1c-1.1-1.1-2.5-0.7-3.8-0.7l0,0c-0.9-0.9-2-0.7-3.1-0.7c-0.3,0-0.7-0.1-1-0.1
		c-1.7-1.2-3.7-1.4-5.8-1.5l-0.3,0c-1.5-1-3.1-1.4-4.9-1.5c-1.3-0.5-2.5-1-3.8-1.5c-5.8-2.1-11.4-4.5-16.1-8.5
		c-6.3-5.4-6.6-13.1-0.8-19c2.2-2.3,4.8-3.9,7.6-5.3c7.4-3.8,15.2-6.4,23.4-7.7c5.3-0.8,7.3-3.9,8.5-8.6c-9.2,1.4-18,3.6-26.5,6.6
		c-9.2,3.2-18.2,7.1-25.4,14c-8.9,8.6-9.1,19.4-0.3,28c7.4,7.2,16.5,11.5,26.3,14.3c1.2,1,2.6,1.4,4.2,1.4l0.2,0.1l0.2,0
		c1.7,1.1,3.5,1.5,5.5,1.5l-0.1,0c1.9,1.1,4,1.5,6.2,1.6l0.2-0.1c3.5,1.6,7.2,2,10.9,2.4c0.5,0.1,1,0.2,1.5,0.3
		c2.7,0.8,5.4,1.1,8.2,1.2c0.5,0.1,1,0.2,1.5,0.2c4,0.4,8,0.9,12,1.3c0.5,0,1,0.1,1.5,0.1c7.2,0.7,14.5,1.5,21.8,1.4
		c2.5,0,5,0.1,7.5,0.1c3.7,0.4,7.5,0.3,11.2,0c2.7,0,5.5,0,8.2,0c7-0.4,14-0.5,21-1.5c1,0,2.1,0.4,3.1-0.4c3.5,0.1,7-0.4,10.5-1
		c0.5-0.1,1-0.1,1.5-0.2c7.2-0.8,14.4-1.7,21.3-4l0.2,0.1l0.2-0.1c2,0,3.9-0.3,5.6-1.4l0.2,0.1l0.2-0.1c1.8,0,3.4-0.4,4.8-1.5
		c1.9-0.6,3.7-1.2,5.6-1.8c0.7,0.2,1.2,0.1,1.5-0.7c0.2-0.1,0.4-0.2,0.6-0.2c10.9-3.3,20.8-8.2,27.3-18c3.6-5.6,3.8-11.8,0.3-17.3
		c-6.7-10.6-17.3-15.6-28.9-19c-0.6-0.1-1.1-0.2-1.7-0.3c-1.3-1.5-3.1-1.8-5-2.1l0,0c-2.9-1.4-5.9-2.2-9.1-2.4l-0.2,0.1
		c-0.9-0.6-2.5-1.4-2.5,0.2c0,2-1.9,5,1.4,6.1c3.6,1.2,7.4,2,11.1,3c5.3,2.2,10.7,4.1,15.3,7.5c9.2,6.8,9.2,16.1,0,22.8
		c-2.9,2.1-6.2,3.6-9.3,5.4c-0.6,0.3-1.2,0.5-1.8,0.8c-0.1-0.1-0.3,0-0.3,0.1c-0.9,0-1.6,0.2-2.3,0.8l0,0c-1.6,0.2-3.1,0.6-4.5,1.5
		l0,0C-157.2,510-158,510.1-158.6,510.8L-158.6,510.8z M-289.1,505L-289.1,505c4.1,1.2,8.5,1.5,12.8,1.8c0.5,0.1,1,0.1,1.5,0.2
		c5.5,0.8,11,1.2,16.5,1.4c0.8,0,1.5,0.1,2.3,0.1c13.2,1,26.4,1,39.6,0c0.5,0,1,0,1.6-0.1c9.8-0.4,19.5-1.3,29.2-2.9
		c0.5-0.1,1-0.2,1.5-0.3c1.7-0.2,3.4-0.3,5.1-0.5c1.3-0.1,2.1-0.7,2.2-2c0.3-3.6,1-7.1,0.6-10.7c-0.1-0.8-0.2-1.6-1.2-0.8
		c-0.5,0.3-1,0.5-1.5,0.8c-1.3,0.2-2.5,0.5-3.4,1.4l-0.2,0c-3.8,0.5-7.5,0.5-11.3,0.1c-0.1-0.2-0.2-0.2-0.4-0.1
		c-1.8-0.8-3.7-1.5-5.5-2.3c-1.7-2.2-2.7-1.9-4,0.6c-4.2,8.2-11.2,12.3-20.3,12.2c-9.8-0.2-16.4-5.6-20.7-14.2
		c0-0.7-0.1-1.4-0.7-1.9l0.1-0.2l-0.1-0.2c-1.4-11.8-0.5-23.6-0.7-35.4c0-2.3-0.2-4-3.2-3.6c-0.5-0.2-1-0.4-1.5-0.5
		c-0.5-0.1-1-0.1-1.5-0.2c-0.3,0-0.7-0.1-1-0.1c-0.5-0.7-1.3-0.7-2-0.6c-0.3,0-0.7-0.1-1-0.1c-0.7-0.9-1.8-0.7-2.8-0.9l-0.2,0.1
		c-0.5-0.7-1.3-0.7-2-0.6c-0.1-0.2-0.2-0.2-0.4-0.1c-2.6-0.6-5.1-2.8-8-0.7c-15.5,10.4-23.9,25.1-25.9,43.6c-0.5,3.7-0.4,7.4,0,11.2
		c0.1,0.5,0.2,1,0.3,1.5C-295.7,506.4-291.6,504.5-289.1,505z M-198.4,351.7L-198.4,351.7c7.6-0.5,11.9-3.7,14.4-10.7
		c3-8.5,3.7-17.2,2.2-26.1c-2.1-11.9-6.7-17.1-16.7-18.2c-3-1.2-6.1-1.9-9.4-2.2c-15.6-1.2-29.8,2.3-41.2,13.5
		c-9.4,9.2-9.2,23.5,0.1,32.8c8.2,8.2,18.4,12.1,29.7,13.2c3.7,0.4,7.4,0.5,11.2,0c2.8,0,5.5-0.7,8.2-1.6
		C-199.3,352.5-198.7,352.5-198.4,351.7z M-208.9,543.2c-20.5,1.1-40.9,1.2-61.7-0.7c10.7,10.1,33.2,14.2,49.7,9.4
		c0.7,0.1,1.2,0,1.5-0.7c0.2-0.1,0.3-0.2,0.5-0.2c6.5-0.9,11.9-4.2,16.9-8.5C-204.3,542.8-206.6,543-208.9,543.2z M-186.4,428.6
		c-5.2,1.2-10.1,0.2-14.8-2c0,14.8,0,29.3,0,43.7c0,1.6,0.3,3.2,0.7,4.8c1.2,4.9,5.3,8.2,10.4,8.7c0.6,0.5,1.4,0.5,2.1,0.4
		c7.5-0.6,12-6,12-14.5c0.1-14.7,0-29.5,0-44.2c0-0.9,0.5-2-0.6-2.8C-179.3,425.7-182.6,427.5-186.4,428.6z M-217.8,276.2
		c-1.8-0.5-3.6-1.2-5.4-1.4c-22.5-3.5-44.3,8.4-53.4,29c-9.1,20.7-3.2,45.2,14.9,59.2c13.6,10.5,28.8,13.6,45.4,8.3
		c5.9-1.1,10.9-4.2,15.4-8.3c-2.9,0.4-5.8,0.7-8.7,1.1c-0.6,0-1.2-0.1-1.9-0.1c-14.8,0.6-28.5-2.8-40.1-12.3
		c-10.3-8.5-16.5-19.2-14.2-33c2.1-12.7,10.6-20.8,21.2-26.9c10.8-6.2,22.7-7.9,34.9-7.6c2.9,0.3,5.8,0.7,8.6,1
		C-205.9,280.6-211.4,277.4-217.8,276.2z M-276.1,405c-0.1,1-0.1,1.3-0.1,1.7c0,4.4-0.1,8.7,0,13.1c0.1,7.9,3.6,12.3,11.1,14.3
		c6.3,1.6,12.6,3.2,18.9,4.7c7.9,1.9,10.2,4.9,10.2,13.2c0,9.5,0,19,0,28.5c0,1.6,0,3.2,0.6,4.8c2,5.8,7.5,9.2,13.8,8.3
		c5.8-0.8,10.4-5.9,10.5-12.3c0.1-10.6,0-21.2,0-31.9c0-5.8,0-11.6,0-17.9c-6,2.8-11.9,3.9-17.3,1
		C-244.6,424.2-262.3,418.5-276.1,405z M-276.6,363c-3.9,19.6,4.4,36.6,21.7,45.3c9.1,4.6,18.3,9.2,27.4,13.7
		c1.5,0.8,3.2,1.5,4.9,1.8c4.8,0.8,9.3-2,10.8-6.6c1.6-4.7-0.2-9.6-5-12c-9.3-4.8-18.7-9.5-28.1-14.1c-5.1-2.5-9.2-5.9-11.3-11.3
		c-0.4-1-1-1.7-1.9-2.2C-265.1,374.1-271,369.2-276.6,363z M-282.3,433.8c-4.4-6.8-3.7-13.6-3.7-20.3c0-8.6,0-17.2,0-25.9
		c0-1.1,0.1-2.3-0.2-3.4c-2.6-10.5-1.5-20.8,1.2-31.1c0.3-1.3,0.4-2.3-0.2-3.5c-2.1-4.5-3.8-9.2-4.6-14.2c-0.2-1.3-0.7-1.9-2.2-1.7
		c-9.2,1.1-13.2,6.4-11.8,15.4c3.7,24.3,7.4,48.6,10.9,72.9C-292,428.2-289.4,432.1-282.3,433.8z M-179.5,396.8
		c-0.3-8.5-2.3-18.8-6.8-28.6c-0.5-1.1-0.7-3.5-2.9-1.3c-4,4-8.6,7.3-13.5,9.9c-1.4,0.8-1.6,1.5-1,2.9c3.6,8.9,4.6,18,3,27.5
		c-1,6,1.8,10.1,7,11.4c5.1,1.3,9.6-1.1,12-6.5C-179.7,408-179.5,403.6-179.5,396.8z M-304.1,479.1c0.1-1.4-0.9-1.4-1.7-1.2
		c-1.7,0.4-3.3,0.9-5,1.4c-5.8,1.7-11.5,3.5-16.6,6.7c-4.8,3.1-4.9,4.7-0.1,7.9c6.1,4.1,13.1,5.8,19.9,7.8c1.6,0.5,2.3-0.2,1.9-1.9
		c-0.8-3.8-0.5-7.6,0-11.5C-305.3,485.3-305,482.1-304.1,479.1z M-166,495.5c-0.1,1.5,0,3-0.2,4.5c-0.3,2,0.8,2.2,2.2,1.7
		c6.5-2.1,13.1-3.8,19-7.5c5-3.2,5.1-4.8,0.3-8.2c-0.7-0.5-1.4-0.9-2.2-1.3c-5.4-2.8-11.1-4.4-16.9-6c-3.7-1-4.1-0.7-3.4,2.9
		C-166.6,486.1-165.9,490.8-166,495.5z M-210.2,397.3c0-5.2-1.1-9.4-2.6-13.5c-0.4-1.1-0.7-2.4-2.5-1.9c-6.5,1.9-13.1,2.3-20,2.7
		C-227.1,388.8-218.9,392.9-210.2,397.3z"/>
	<path class="st1" d="M-151.1,429.1c0-2.9,2.5-5.1,6.2-5.1c2.7,0.1,4-0.4,3.8-3.5c-0.2-3.8,2.2-6.5,5.2-6.4c2.8,0.1,5.1,2.7,4.9,6.3
		c-0.1,2.9,0.7,3.8,3.6,3.7c3.6-0.2,6.2,2.1,6.3,4.9c0.1,2.9-2.6,5.3-6.4,5.2c-2.6-0.1-3.8,0.3-3.6,3.3c0.3,3.9-2.1,6.5-5,6.6
		c-2.9,0.1-5.3-2.6-5.1-6.5c0.1-2.8-0.6-3.6-3.4-3.5C-148.5,434.4-151.1,432.1-151.1,429.1z"/>
	<path class="st1" d="M-351.1,399.1c-2.9,0-4.9-2.1-4.7-5.4c0.3-3.4-0.4-4.9-4.3-4.6c-3.8,0.3-6.1-2.1-6-5.1c0.1-3,2.4-5.2,6.2-4.9
		c3.7,0.3,4.3-1.2,4.1-4.4c-0.2-3.6,1.8-5.7,4.9-5.6c2.5,0.1,5,2.7,4.8,5.6c-0.2,3.1,0.4,4.6,4.1,4.3c3.4-0.3,5.7,2.1,5.8,4.9
		c0,3.1-2.2,5.4-5.9,5.1c-3.6-0.3-4.1,1.1-3.9,4.1C-345.9,396.4-348.4,399.1-351.1,399.1z"/>
	<path class="st1" d="M-101.6,294c0,3.7-1.6,5.4-6,5.2c-3.2-0.2-4,0.8-3.8,3.9c0.3,4-1.7,6.2-4.8,6.1c-2.8-0.1-5.1-2.7-4.8-6.3
		c0.2-3-0.8-3.7-3.7-3.6c-3.8,0.2-6.1-2-6.2-4.9c-0.1-3.2,2.2-5.4,6.3-5.2c3.2,0.2,3.7-1,3.5-3.8c-0.2-3.5,2.2-6.2,5-6.2
		c3.1,0,5,2.1,4.6,6.2c-0.3,3.3,1,3.8,4,3.7C-103.2,288.9-101.6,290.5-101.6,294z"/>
	<path class="st2" d="M-163.4,462c0,0,0.2-0.1,0.2-0.1c2.8,1.6,5.9,2.3,9.1,2.4c0,0,0,0,0,0c1.3,1.6,3.2,1.7,5,2.1
		c0.6,0.1,1.1,0.2,1.7,0.3c3.2,2.7,7,4.6,10.4,7.2c13.2,10.3,14.4,26.2,2.7,38.1c-3.5,3.6-8.2,5.5-11.7,9.1
		c-0.2,0.1-0.4,0.1-0.6,0.2c-0.6,0-1.1,0.1-1.5,0.7c-1.9,0.6-3.7,1.2-5.6,1.8c-1.8-0.2-3.5,0.2-4.8,1.5l-0.2,0.1
		c0,0-0.2-0.1-0.2-0.1c-2.1-0.3-4,0.1-5.6,1.4l-0.2,0.1c0,0-0.2-0.1-0.2-0.1c-5.5-0.1-10.6,1.8-16,2.6c-1.7,0.3-4.1-0.9-5.4,1.4
		c-0.5,0.1-1,0.1-1.5,0.2c-3.7-1.4-7,0.1-10.5,1c-0.9,0.8-2,0.5-3.1,0.4c-0.6-0.2-1.1-0.6-1.7-0.5c-5.9,0.2-11.8,1.1-17.7,0.8
		c-0.9,0-1.4,0.5-1.5,1.3c-2.7,0-5.5,0-8.2,0c-3.7-1-7.5-1-11.2,0c-2.5,0-5-0.1-7.5-0.1c-0.5-1.7-2-1.2-3.1-1.2
		c-3.7-0.1-7.4,0.1-11.1-0.2c-2.6-0.3-5-1-7.6,0c-0.5,0-1-0.1-1.5-0.1c-3.9-1.7-7.9-2.3-12-1.3c-0.5-0.1-1-0.2-1.5-0.2
		c-2.6-1.4-5.3-2.3-8.2-1.2c-0.5-0.1-1-0.2-1.5-0.3c-3.4-1.9-7.1-2.2-10.9-2.4c0,0-0.2,0.1-0.2,0.1c-1.8-1.4-3.9-1.8-6.2-1.6
		c0,0,0.1,0,0.1,0c-1.6-1.5-3.5-1.8-5.5-1.5l-0.2,0c0,0-0.2-0.1-0.2-0.1c-1.1-1.3-2.5-1.7-4.2-1.4c-9.9-2.8-18.9-7.1-26.3-14.3
		c-8.8-8.6-8.6-19.4,0.3-28c7.2-6.9,16.1-10.8,25.4-14c8.6-3,17.4-5.2,26.5-6.6c-1.2,4.8-3.2,7.8-8.5,8.6c-8.1,1.3-16,3.9-23.4,7.7
		c-2.8,1.4-5.4,3.1-7.6,5.3c-5.8,5.9-5.5,13.6,0.8,19c4.7,4,10.4,6.4,16.1,8.5c1.3,0.5,2.5,1,3.8,1.5c1.4,1.4,3.1,1.7,4.9,1.5
		c0,0,0.3,0,0.3,0c1.7,1.4,3.7,1.7,5.8,1.5c0.3,0,0.7,0.1,1,0.1c0.8,1.2,2,0.7,3.1,0.7c0,0,0,0,0,0c1,1.4,2.5,0.7,3.8,0.7
		c0,0-0.1-0.1-0.1-0.1c0.4,0.3,0.7,0.8,1.1,0.8c14.9,2.5,30,3.9,45,4.5c14.5,0.5,29.1,0.3,43.6-0.6c1-0.1,2.1,0.1,2.4-1.2
		c0.5,0,1-0.1,1.5-0.1c4.3,1.5,8.5-0.1,12.7-0.5c3.5-0.3,7.4,0.4,10.5-2.1c0.5-0.1,1-0.2,1.6-0.3c4,1.2,7.7-0.3,11.3-1.8l0.2-0.1
		c0,0,0.2,0.1,0.2,0.1c2.4,0.3,4.5-0.3,6.5-1.6c0,0,0.2,0.1,0.2,0.1c0.8,0.1,1.5,0.2,1.9-0.7c0,0,0,0,0,0c0.9,0.1,1.7,0.2,2.3-0.7
		c0,0,0,0,0,0c1.7,0.1,3.3,0,4.5-1.5c0,0,0,0,0,0c0.9,0,1.8,0.1,2.3-0.8c0.1-0.1,0.2-0.2,0.3-0.1c0.8,0.1,1.5,0.1,1.8-0.8
		c3.1-1.8,6.4-3.3,9.3-5.4c9.3-6.6,9.2-16,0-22.8c-4.7-3.5-10.1-5.3-15.3-7.5c-2.9-2.3-6.7-2.2-10-3.7c-1.1-0.5-2-0.8-2-2.2
		C-165.2,463.8-165.6,462.2-163.4,462z"/>
	<path class="st3" d="M-194.2,493.5c0.2-0.1,0.3-0.1,0.4,0.1c3.8,2.5,7.6,1.9,11.3-0.1c0,0,0.2,0,0.2,0c1.4,0.1,2.6-0.3,3.4-1.4
		c0.5-0.3,1-0.5,1.5-0.8c0,0.7,0,1.5,0,2.2c0.2,5.2,1.3,10.9-6.6,11.4c-0.1,0-0.1,0.2-0.2,0.3c-0.5,0.1-1,0.2-1.5,0.3
		c-0.7-0.7-1.6-0.7-2.5-0.6c-8.4,1-16.7,2.4-25.1,2.2c-0.8,0-1.4,0.3-1.6,1.2c-0.5,0-1,0-1.6,0.1c-0.7-0.7-1.6-0.5-2.5-0.5
		c-11.6,0-23.1,0-34.7,0c-0.9,0-1.8-0.1-2.5,0.5c-0.8,0-1.5-0.1-2.3-0.1c-5.4-1.8-10.9-2.2-16.5-1.4c-0.5-0.1-1-0.1-1.5-0.2
		c-0.2-0.6-0.6-1.1-1.3-1.1c-3.9,0.1-7.7-1.4-11.6-0.7c0,0,0.1,0.1,0.1,0.1c-2.2-1.2-5.2-0.9-6.2-3.9c-0.1-0.5-0.2-1-0.3-1.5
		c0.9-3.7,0.9-7.4,0-11.2c2-18.5,10.4-33.2,25.9-43.6c2.7-0.3,5.3,1.3,8,0.7c0.2-0.1,0.3-0.1,0.4,0.1c0.5,0.8,1.2,0.7,2,0.6
		c0,0,0.2-0.1,0.2-0.1c0.7,1.2,1.8,1,2.8,0.9c0.3,0,0.7,0.1,1,0.1c0.5,0.8,1.2,0.7,2,0.6c0.3,0,0.7,0.1,1,0.1
		c0.4,0.7,0.9,0.9,1.5,0.2c0.5,0.2,1,0.4,1.5,0.5c2,0.9,2.3,2.5,2.3,4.5c-0.1,9.6,0,19.1,0,28.7c0,2.1,0,4.2,1.6,5.9l0.1,0.2
		c0,0-0.1,0.2-0.1,0.2c-0.1,0.8-0.1,1.5,0.7,1.9c4.2,8.6,10.8,14,20.7,14.2c9.1,0.2,16.1-4,20.3-12.2c1.3-2.6,2.3-2.8,4-0.6
		C-198.6,493.5-196.4,493.4-194.2,493.5z"/>
	<path class="st3" d="M-219.3,353.9c-11.4-1.1-21.5-5-29.7-13.2c-9.3-9.3-9.5-23.6-0.1-32.8c11.5-11.3,25.6-14.7,41.2-13.5
		c3.2,0.3,6.4,1,9.4,2.2c1.5,3,3.4,5.8,4.1,9.2c-6.5-4.3-13.5-6.8-21.4-6.4c-3.2,0.1-4.9,1.6-5,4.7c-0.1,3.2,1.8,4.7,4.8,5
		c2.3,0.3,4.7,0.4,7,0.9c7.8,1.7,12.4,6.1,12.9,13c0.2,3.4,1.7,5.3,4.7,6.3c-0.5,8-3.4,15.3-7,22.4c0,0,0,0,0,0
		c-0.5,0.2-1,0.5-1.5,0.7c-2.7,0.8-5.3,1.6-8.2,1.6C-211.8,353-215.6,353-219.3,353.9z"/>
	<path class="st4" d="M-209.6,284.1c-12.3-0.3-24.1,1.4-34.9,7.6c-10.7,6.1-19.1,14.3-21.2,26.9c-2.3,13.8,3.8,24.6,14.2,33
		c11.6,9.5,25.3,13,40.1,12.3c0.6,0,1.2,0,1.9,0.1c-0.1,1.7-1.6,2.4-2.5,3.4c-1.3,1.4-3.6,1.6-4.2,3.8c-16.6,5.3-31.8,2.2-45.4-8.3
		c-18.1-14-24.1-38.5-14.9-59.2c9.1-20.6,30.9-32.5,53.4-29c1.8,0.3,3.6,1,5.4,1.4c0.1,1.4,1.5,1.5,2.3,2.2
		C-213.5,280.3-210.4,281-209.6,284.1z"/>
	<path class="st5" d="M-276.1,405c13.8,13.5,31.5,19.2,47.7,27.6c5.5,2.8,11.4,1.8,17.3-1c0,6.3,0,12.1,0,17.9
		c0,10.6,0.1,21.2,0,31.9c-0.1,6.4-4.6,11.5-10.5,12.3c-6.3,0.8-11.8-2.5-13.8-8.3c-0.6-1.6-0.6-3.2-0.6-4.8c0-9.5,0-19,0-28.5
		c0-8.3-2.3-11.2-10.2-13.2c-6.3-1.5-12.6-3.1-18.9-4.7c-7.6-1.9-11-6.4-11.1-14.3c-0.1-4.4,0-8.7,0-13.1
		C-276.2,406.3-276.1,406-276.1,405z"/>
	<path class="st6" d="M-276.6,363c5.6,6.2,11.5,11.1,18.5,14.6c0.9,0.5,1.5,1.2,1.9,2.2c2.1,5.5,6.2,8.8,11.3,11.3
		c9.4,4.6,18.8,9.3,28.1,14.1c4.7,2.4,6.6,7.3,5,12c-1.6,4.6-6,7.5-10.8,6.6c-1.7-0.3-3.3-1-4.9-1.8c-9.2-4.5-18.3-9.1-27.4-13.7
		C-272.2,399.6-280.5,382.6-276.6,363z"/>
	<path class="st7" d="M-282.3,433.8c-7.1-1.7-9.7-5.6-10.6-11.7c-3.5-24.3-7.2-48.6-10.9-72.9c-1.4-9,2.6-14.3,11.8-15.4
		c1.5-0.2,2,0.4,2.2,1.7c0.8,5,2.5,9.7,4.6,14.2c0.6,1.2,0.5,2.2,0.2,3.5c-2.7,10.3-3.9,20.6-1.2,31.1c0.3,1.1,0.2,2.2,0.2,3.4
		c0,8.6,0,17.2,0,25.9C-286.1,420.3-286.7,427.1-282.3,433.8z"/>
	<path class="st6" d="M-179.5,396.8c0.1,6.7-0.2,11.2-2.1,15.4c-2.4,5.4-6.9,7.8-12,6.5c-5.3-1.3-8-5.4-7-11.4
		c1.5-9.5,0.6-18.6-3-27.5c-0.6-1.4-0.4-2.2,1-2.9c5-2.6,9.6-5.9,13.5-9.9c2.2-2.2,2.4,0.2,2.9,1.3
		C-181.9,378-179.8,388.3-179.5,396.8z"/>
	<path class="st4" d="M-190.1,483.9c-5.2-0.4-9.2-3.7-10.4-8.7c-0.4-1.6-0.6-3.2-0.7-4.8c0-14.5,0-29,0-43.7c4.7,2.2,9.7,3.1,14.8,2
		c0,10.2,0.1,20.5,0.1,30.7C-186.3,467.7-185,476.3-190.1,483.9z"/>
	<path class="st7" d="M-190.1,483.9c5.1-7.6,3.7-16.2,3.8-24.6c0.1-10.2,0-20.5-0.1-30.7c3.7-1.2,7.1-3,9.8-5.9
		c1.1,0.9,0.6,1.9,0.6,2.8c0,14.7,0.1,29.5,0,44.2c0,8.5-4.5,13.9-12,14.5C-188.7,484.4-189.4,484.4-190.1,483.9z"/>
	<path class="st8" d="M-220.9,551.9c-16.5,4.8-39,0.7-49.7-9.4c20.7,1.9,41.2,1.8,61.7,0.7c-2.8,3.3-7,4.7-10,7.8
		c-0.2,0-0.4,0.1-0.5,0.2C-220,551.2-220.5,551.4-220.9,551.9z"/>
	<path class="st9" d="M-198.5,351.7c3.6-7.1,6.5-14.3,7-22.4c3.8-0.6,5.4-2.8,5.3-6.7c-0.2-7-3.3-12.3-8.3-16.8
		c-0.7-3.3-2.6-6.2-4.1-9.2c10,1.2,14.6,6.3,16.7,18.2c1.6,8.9,0.9,17.6-2.2,26.1C-186.5,347.9-190.8,351.2-198.5,351.7z"/>
	<path class="st10" d="M-146,521c3.5-3.5,8.2-5.4,11.7-9.1c11.7-11.9,10.6-27.8-2.7-38.1c-3.3-2.6-7.2-4.4-10.4-7.2
		c11.6,3.4,22.2,8.4,28.9,19c3.5,5.5,3.4,11.7-0.3,17.3C-125.2,512.9-135.1,517.8-146,521z"/>
	<path class="st11" d="M-210.2,397.3c-8.7-4.4-16.9-8.5-25.1-12.7c6.9-0.4,13.5-0.8,20-2.7c1.8-0.5,2.1,0.8,2.5,1.9
		C-211.4,387.9-210.2,392.1-210.2,397.3z"/>
	<path class="st12" d="M-205,517.9c-0.3,1.3-1.4,1.1-2.4,1.2c-14.5,0.9-29.1,1.2-43.6,0.6c-15.1-0.6-30.1-2-45-4.5
		c-0.4-0.1-0.8-0.5-1.1-0.8c10.4,1.2,20.7,2.8,31.1,3.6c8.4,0.7,16.9,0.7,25.4,0.9C-228.9,519.3-217,518.5-205,517.9z"/>
	<path class="st7" d="M-209.6,284.1c-0.8-3.1-3.9-3.9-6-5.8c-0.8-0.7-2.2-0.8-2.3-2.2c6.4,1.3,11.9,4.4,16.9,8.9
		C-203.8,284.8-206.7,284.5-209.6,284.1z"/>
	<path class="st7" d="M-216.3,371.3c0.6-2.2,2.9-2.4,4.2-3.8c1-1,2.4-1.7,2.5-3.4c2.9-0.4,5.8-0.7,8.7-1.1
		C-205.5,367.1-210.4,370.2-216.3,371.3z"/>
	<path class="st9" d="M-218.9,551c2.9-3.1,7.2-4.5,10-7.8c2.3-0.2,4.6-0.5,6.9-0.7C-207,546.8-212.3,550.1-218.9,551z"/>
	<path class="st8" d="M-256,508.4c0.7-0.7,1.6-0.5,2.5-0.5c11.6,0,23.1,0,34.7,0c0.9,0,1.8-0.1,2.5,0.5
		C-229.6,509.3-242.8,509.4-256,508.4z"/>
	<path class="st8" d="M-245.5,487.6c-1.6-1.7-1.6-3.8-1.6-5.9c0-9.6,0-19.1,0-28.7c0-2-0.3-3.6-2.3-4.5c2.9-0.4,3.1,1.3,3.2,3.6
		C-246,464-246.9,475.8-245.5,487.6z"/>
	<path class="st8" d="M-214.8,508.3c0.2-0.9,0.8-1.2,1.6-1.2c8.5,0.2,16.8-1.2,25.1-2.2c0.8-0.1,1.8-0.2,2.5,0.6
		C-195.3,507.1-205,507.9-214.8,508.3z"/>
	<path class="st8" d="M-184.1,505.2c0-0.1,0.1-0.3,0.2-0.3c7.9-0.5,6.8-6.2,6.6-11.4c0-0.7,0-1.5,0-2.2c1.1-0.8,1.2,0,1.2,0.8
		c0.4,3.6-0.3,7.1-0.6,10.7c-0.1,1.3-1,1.9-2.2,2C-180.6,504.9-182.4,505-184.1,505.2z"/>
	<path class="st12" d="M-180.3,515.1c-3.1,2.5-7,1.9-10.5,2.1c-4.2,0.4-8.4,2-12.7,0.5C-195.8,516.9-188.1,516-180.3,515.1z"/>
	<path class="st12" d="M-186.3,530.7c1.3-2.3,3.6-1.1,5.4-1.4c5.3-0.8,10.5-2.8,16-2.6C-171.9,529-179.1,529.9-186.3,530.7z"/>
	<path class="st12" d="M-222.3,533.9c0.2-0.8,0.7-1.3,1.5-1.3c5.9,0.3,11.8-0.6,17.7-0.8c0.6,0,1.1,0.3,1.7,0.5
		C-208.3,533.4-215.3,533.5-222.3,533.9z"/>
	<path class="st12" d="M-271,532.4c2.5-1,5-0.3,7.6,0c3.7,0.4,7.4,0.1,11.1,0.2c1.1,0,2.6-0.5,3.1,1.2
		C-256.6,533.9-263.8,533.1-271,532.4z"/>
	<path class="st12" d="M-163.4,462c-2.2,0.2-1.9,1.9-1.9,3.4c-0.1,1.4,0.8,1.7,2,2.2c3.3,1.5,7.1,1.4,10,3.7c-3.7-1-7.5-1.8-11.1-3
		c-3.3-1.1-1.4-4.1-1.4-6.1C-165.9,460.6-164.3,461.3-163.4,462z"/>
	<path class="st8" d="M-274.8,506.9c5.6-0.9,11.1-0.4,16.5,1.4C-263.8,508.1-269.3,507.7-274.8,506.9z"/>
	<path class="st8" d="M-182.5,493.4c-3.8,2-7.5,2.6-11.3,0.1C-190,494-186.3,493.9-182.5,493.4z"/>
	<path class="st8" d="M-289.1,504.9c3.9-0.6,7.7,0.8,11.6,0.7c0.7,0,1.1,0.5,1.3,1.1C-280.6,506.4-285,506.2-289.1,504.9z"/>
	<path class="st12" d="M-284.6,530.9c4.2-0.9,8.1-0.4,12,1.3C-276.6,531.8-280.6,531.4-284.6,530.9z"/>
	<path class="st12" d="M-306.8,526.7c3.8,0.2,7.5,0.5,10.9,2.4C-299.6,528.7-303.3,528.4-306.8,526.7z"/>
	<path class="st12" d="M-167.5,513c-3.6,1.6-7.2,3-11.3,1.8C-175,514.2-171.3,513.6-167.5,513z"/>
	<path class="st12" d="M-198.3,532c3.4-1,6.8-2.4,10.5-1C-191.3,531.5-194.7,532.1-198.3,532z"/>
	<path class="st12" d="M-294.3,529.5c3-1,5.6-0.2,8.2,1.2C-288.9,530.6-291.6,530.2-294.3,529.5z"/>
	<path class="st12" d="M-241.8,533.9c3.8-0.9,7.5-1,11.2,0C-234.3,534.3-238.1,534.3-241.8,533.9z"/>
	<path class="st8" d="M-219.3,353.9c3.7-0.9,7.4-0.9,11.2,0C-211.8,354.4-215.6,354.3-219.3,353.9z"/>
	<path class="st8" d="M-295.3,501.1c1.1,2.9,4.1,2.7,6.2,3.9C-291.6,504.5-295.7,506.4-295.3,501.1z"/>
	<path class="st8" d="M-295.6,488.4c0.9,3.7,0.9,7.4,0,11.2C-296,495.8-296.1,492.1-295.6,488.4z"/>
	<path class="st8" d="M-261.7,445.5c-2.7,0.6-5.3-1-8-0.7C-266.9,442.7-264.4,444.9-261.7,445.5z"/>
	<path class="st12" d="M-154,464.3c-3.2-0.2-6.3-0.8-9.1-2.4C-160,462.1-156.9,462.9-154,464.3z"/>
	<path class="st8" d="M-194.2,493.5c-2.1-0.1-4.3,0-5.5-2.3C-197.9,492-196.1,492.7-194.2,493.5z"/>
	<path class="st12" d="M-160.7,511.4c-2,1.4-4.1,1.9-6.5,1.6C-165.2,511.9-163,511.5-160.7,511.4z"/>
	<path class="st12" d="M-318.6,523.7c2.1-0.3,4,0,5.5,1.5C-315.1,525.2-317,524.8-318.6,523.7z"/>
	<path class="st12" d="M-313.2,525.2c2.3-0.2,4.4,0.2,6.2,1.6C-309.2,526.7-311.3,526.3-313.2,525.2z"/>
	<path class="st12" d="M-164.6,526.7c1.6-1.4,3.6-1.7,5.6-1.4C-160.7,526.3-162.6,526.7-164.6,526.7z"/>
	<path class="st12" d="M-305.1,513c-2.1,0.1-4.1-0.1-5.8-1.5C-308.9,511.6-306.9,511.8-305.1,513z"/>
	<path class="st12" d="M-149.1,466.4c-1.8-0.4-3.7-0.5-5-2.1C-152.2,464.6-150.4,464.9-149.1,466.4z"/>
	<path class="st12" d="M-323.2,522.2c1.6-0.3,3.1,0.1,4.2,1.4C-320.6,523.6-322,523.3-323.2,522.2z"/>
	<path class="st12" d="M-158.6,525.2c1.4-1.2,3-1.7,4.8-1.5C-155.2,524.8-156.8,525.2-158.6,525.2z"/>
	<path class="st12" d="M-311.1,511.5c-1.8,0.2-3.5-0.1-4.9-1.5C-314.3,510.1-312.6,510.4-311.1,511.5z"/>
	<path class="st12" d="M-151.8,508.6c-1.2,1.5-2.8,1.6-4.5,1.5C-155,509.2-153.4,508.8-151.8,508.6z"/>
	<path class="st12" d="M-297.2,514.5c-1.3,0-2.8,0.7-3.8-0.7C-299.7,513.8-298.3,513.4-297.2,514.5z"/>
	<path class="st8" d="M-178.8,492c-0.8,1.2-2,1.6-3.4,1.4C-181.3,492.6-180.1,492.2-178.8,492z"/>
	<path class="st12" d="M-301,513.8c-1.1,0-2.3,0.5-3.1-0.7C-303,513.1-301.8,512.8-301,513.8z"/>
	<path class="st12" d="M-156.3,510.1c-0.6,0.9-1.4,0.8-2.3,0.7C-158,510.1-157.2,510-156.3,510.1z"/>
	<path class="st12" d="M-149.5,507.8c-0.5,0.9-1.4,0.8-2.3,0.8C-151.2,508-150.4,507.8-149.5,507.8z"/>
	<path class="st8" d="M-256.4,447c-1.1,0.1-2.1,0.3-2.8-0.9C-258.2,446.2-257.1,446.1-256.4,447z"/>
	<path class="st9" d="M-199.9,352.4c0.5-0.2,1-0.4,1.5-0.7C-198.7,352.5-199.3,352.5-199.9,352.4z"/>
	<path class="st8" d="M-259.3,446.2c-0.8,0.1-1.5,0.1-2-0.6C-260.6,445.5-259.8,445.5-259.3,446.2z"/>
	<path class="st8" d="M-253.3,447.7c-0.8,0.1-1.5,0.1-2-0.6C-254.6,447-253.8,447-253.3,447.7z"/>
	<path class="st12" d="M-158.6,510.8c-0.4,0.8-1.2,0.8-1.9,0.7C-160,510.7-159.3,510.7-158.6,510.8z"/>
	<path class="st10" d="M-148.2,521.9c0.4-0.5,0.9-0.7,1.5-0.7C-146.9,522-147.5,522.1-148.2,521.9z"/>
	<path class="st8" d="M-244.7,489.8c-0.8-0.4-0.8-1.1-0.7-1.9C-244.8,488.4-244.7,489.1-244.7,489.8z"/>
	<path class="st12" d="M-147.4,506.9c-0.3,0.9-1.1,0.9-1.8,0.8C-148.6,507.4-148,507.2-147.4,506.9z"/>
	<path class="st8" d="M-250.8,448c-0.6,0.7-1.1,0.5-1.5-0.2C-251.8,447.9-251.3,448-250.8,448z"/>
	<path class="st9" d="M-220.9,551.9c0.4-0.6,0.9-0.7,1.5-0.7C-219.6,551.9-220.2,552-220.9,551.9z"/>
	<path class="st0" d="M-194.5,305.8c5,4.5,8.1,9.8,8.3,16.8c0.1,4-1.5,6.1-5.3,6.7c-3.1-1-4.5-2.9-4.7-6.3c-0.5-6.9-5-11.3-12.9-13
		c-2.3-0.5-4.7-0.6-7-0.9c-3-0.3-4.9-1.8-4.8-5c0.1-3.1,1.8-4.6,5-4.7C-208,299-201,301.5-194.5,305.8z"/>
</g>
</svg>
